<svg width="48" height="48" viewBox="0 0 48 48" fill="none" xmlns="http://www.w3.org/2000/svg">
<rect x="0.5" y="0.5" width="47" height="47" rx="23.5" stroke="white"/>
<g clip-path="url(#clip0)">
<path d="M15.1496 24.7504L31.033 24.7504L28.4019 27.3688C28.1083 27.661 28.1072 28.1359 28.3994 28.4294C28.6916 28.7231 29.1665 28.7242 29.46 28.432L33.3789 24.532C33.3792 24.5318 33.3794 24.5315 33.3796 24.5313C33.6725 24.2391 33.6734 23.7627 33.3797 23.4695C33.3794 23.4693 33.3792 23.469 33.379 23.4688L29.4601 19.5688C29.1666 19.2767 28.6917 19.2777 28.3994 19.5714C28.1072 19.8649 28.1084 20.3398 28.4019 20.632L31.033 23.2504L15.1496 23.2504C14.7354 23.2504 14.3996 23.5862 14.3996 24.0004C14.3996 24.4146 14.7354 24.7504 15.1496 24.7504Z" fill="white"/>
</g>
<defs>
<clipPath id="clip0">
<rect width="19.2" height="19.2" fill="white" transform="translate(33.5996 33.5996) rotate(-180)"/>
</clipPath>
</defs>
</svg>
