<svg width="256" height="146" viewBox="0 0 256 146" fill="none" xmlns="http://www.w3.org/2000/svg">
<path d="M74.1153 -4.25813e-05L0 145.544H38.1483L74.0854 72.0047L110.028 145.531H148.171L74.1153 -4.25813e-05ZM133.594 139.189H113.997L81.9342 73.5784L133.594 139.189ZM132.907 129.575L76.7897 58.3091V19.2883L132.907 129.575ZM14.5721 139.179L66.2616 73.5356L34.1891 139.179H14.5721ZM71.3762 19.3719V58.3031L15.3091 129.501L71.3762 19.3719Z" fill="white"/>
<path d="M217.847 7.9489e-05L181.925 73.5437L145.978 0.0100344H107.844L181.89 145.544L256 7.9489e-05H217.847ZM122.411 6.3578H142.008L174.061 71.956L122.411 6.3578ZM123.104 15.9621L179.21 87.2273L179.225 126.246L123.104 15.9621ZM241.443 6.37125L189.758 71.9913L221.831 6.37125H241.443ZM184.634 126.155V87.2372L240.686 16.0533L184.634 126.155Z" fill="white"/>
</svg>
