<?xml version="1.0" encoding="UTF-8" standalone="no"?>
<svg
   xmlns:dc="http://purl.org/dc/elements/1.1/"
   xmlns:cc="http://creativecommons.org/ns#"
   xmlns:rdf="http://www.w3.org/1999/02/22-rdf-syntax-ns#"
   xmlns:svg="http://www.w3.org/2000/svg"
   xmlns="http://www.w3.org/2000/svg"
   xmlns:sodipodi="http://sodipodi.sourceforge.net/DTD/sodipodi-0.dtd"
   xmlns:inkscape="http://www.inkscape.org/namespaces/inkscape"
   version="1.1"
   id="svg2"
   xml:space="preserve"
   width="1019.7467"
   height="415.97333"
   viewBox="0 0 1019.7467 415.97333"
   sodipodi:docname="immersiveavExpo Logo.eps"><metadata
     id="metadata8"><rdf:RDF><cc:Work
         rdf:about=""><dc:format>image/svg+xml</dc:format><dc:type
           rdf:resource="http://purl.org/dc/dcmitype/StillImage" /></cc:Work></rdf:RDF></metadata><defs
     id="defs6" /><sodipodi:namedview
     pagecolor="#ffffff"
     bordercolor="#666666"
     borderopacity="1"
     objecttolerance="10"
     gridtolerance="10"
     guidetolerance="10"
     inkscape:pageopacity="0"
     inkscape:pageshadow="2"
     inkscape:window-width="640"
     inkscape:window-height="480"
     id="namedview4" /><g
     id="g10"
     inkscape:groupmode="layer"
     inkscape:label="ink_ext_XXXXXX"
     transform="matrix(1.3333333,0,0,-1.3333333,0,415.97333)"><g
       id="g12"
       transform="scale(0.1)"><path
         d="m 4413.37,803.059 c -19.32,0 -31.82,20.421 -23.04,37.632 l 281.04,550.759 c 7.96,15.59 23.98,25.4 41.48,25.4 h 1650.96 c 19.32,0 31.82,-20.4 23.05,-37.6 L 6106.25,828.488 c -7.95,-15.597 -23.98,-25.418 -41.49,-25.418 l -1651.39,-0.011"
         style="fill:#00adef;fill-opacity:1;fill-rule:nonzero;stroke:none"
         id="path14" /><path
         d="m 4991.84,1158.2 c 5.36,0 7.74,1.19 7.74,5.97 0,1.19 -0.59,2.98 -0.59,4.76 -10.12,56.59 -54.82,92.35 -110.22,92.35 -62.56,0 -106.66,-44.68 -114.39,-103.08 z m -218.06,-53.61 c 3.57,-60.19 54.21,-109.641 116.77,-109.641 53.03,0 89.38,25.621 107.84,57.801 4.78,8.34 12.51,11.92 20.86,11.92 14.9,0 30.97,-11.32 30.97,-26.81 0,-19.67 -43.49,-98.911 -160.25,-98.911 -106.07,0 -176.97,82.221 -176.97,187.081 0,113.8 75.68,190.07 175.18,190.07 91.75,0 163.25,-66.74 171.58,-161.46 v -5.97 c 0,-26.22 -14.3,-44.08 -46.46,-44.08 h -239.52"
         style="fill:#ffffff;fill-opacity:1;fill-rule:nonzero;stroke:none"
         id="path16" /><path
         d="m 5205.83,1084.92 -90.56,-129.291 c -7.14,-10.129 -16.68,-14.301 -25.62,-14.301 -16.68,0 -32.76,14.301 -32.76,30.992 0,5.348 2.38,11.309 6.54,17.282 l 106.65,144.178 -97.11,132.27 c -4.18,5.35 -5.96,11.32 -5.96,16.68 0,16.09 16.09,28.6 32.77,28.6 8.95,0 17.87,-3.58 24.43,-12.51 l 81.62,-115.59 81.04,114.99 c 6.54,9.53 16.08,13.11 25.02,13.11 16.68,0 32.76,-12.51 32.76,-28.6 0,-5.36 -2.38,-10.73 -6.54,-16.68 l -96.53,-132.27 107.25,-144.178 c 4.17,-5.372 5.95,-11.332 5.95,-17.282 0,-16.691 -16.08,-30.992 -33.37,-30.992 -8.92,0 -18.46,4.172 -25.02,14.301 l -90.56,129.291"
         style="fill:#ffffff;fill-opacity:1;fill-rule:nonzero;stroke:none"
         id="path18" /><path
         d="m 5655.91,1127.82 c 0,74.48 -44.08,128.69 -106.64,128.69 -68.52,0 -112.01,-53.02 -112.01,-128.69 0,-75.66 43.49,-129.289 112.01,-129.289 62.56,0 106.64,54.819 106.64,129.289 z m -276.45,161.45 c 0,15.5 14.9,22.65 29.79,22.65 14.31,0 29.2,-7.15 29.2,-22.04 v -33.37 c 22.04,38.73 63.16,59.59 116.17,59.59 94.15,0 162.07,-75.08 162.07,-188.28 0,-113.2 -67.92,-188.871 -162.07,-188.871 -50.04,0 -90.55,19.653 -114.39,56.59 V 878.168 c 0,-17.258 -14.89,-26.207 -30.38,-26.207 -14.89,0 -30.39,8.949 -30.39,26.207 v 411.102"
         style="fill:#ffffff;fill-opacity:1;fill-rule:nonzero;stroke:none"
         id="path20" /><path
         d="m 6042.85,1127.22 c 0,75.68 -49.46,133.46 -118.57,133.46 -69.12,0 -118.57,-57.78 -118.57,-133.46 0,-75.66 49.45,-132.271 118.57,-132.271 69.11,0 118.57,56.611 118.57,132.271 z m -297.91,0 c 0,109.03 71.5,190.67 179.34,190.67 107.83,0 179.34,-81.64 179.34,-190.67 0,-109.03 -71.51,-190.052 -179.34,-190.052 -107.84,0 -179.34,81.022 -179.34,190.052"
         style="fill:#ffffff;fill-opacity:1;fill-rule:nonzero;stroke:none"
         id="path22" /><path
         d="m 3129.81,1904.83 v 246.55 h 183.61 c 79.5,-0.49 124.99,-40.62 125.41,-119.68 -0.32,-79.12 -46.27,-126.52 -125.41,-126.94 z m 361.04,126.87 c -0.12,103.32 -74.39,170.7 -177.43,170.85 h -235.69 v -574.72 h 52.08 v 225.79 h 163.65 l 162.71,-225.79 h 62.16 l -165.27,229.49 c 81.87,16.39 137.93,85.11 137.79,174.38 z m 346.28,-83.53 -1.52,-3.84 1.52,3.92 c -66.32,26 -132.3,46.83 -131.8,109.39 0.06,47.67 41.51,102.47 127.06,102.62 70.59,-0.29 115.5,-38.03 115.62,-94.58 v -4.13 H 4000 v 4.13 c -0.12,80.81 -63.17,144.84 -167.61,144.98 -115.39,-0.14 -178.86,-78.63 -179.09,-153.02 0.13,-98 85.84,-126.38 163.78,-156.81 88.37,-34.37 148.2,-49.04 147.91,-119.16 -0.27,-55.22 -39.41,-109.55 -143.17,-109.88 -77.65,0.2 -150.41,50.85 -150.48,144.69 v 4.2 h -52.09 v -4.2 c 0.24,-115.36 82.43,-196.58 202.57,-196.71 118.07,0.13 195.02,67.96 195.26,161.9 0.05,106.54 -74.79,125.08 -179.95,166.5 z m 313.19,-320.34 h 52.06 v 574.72 h -52.06 z m 414.66,79.86 -186.61,494.86 h -56.67 l 216.06,-574.72 h 53.55 l 216.07,574.72 h -56.61 z m 734.31,444.47 v 50.39 h -372.65 v -574.72 h 372.65 v 50.4 h -321.5 v 219.9 h 272.93 v 50.33 h -272.93 v 203.7 z M 802.992,1627.83 h 52.121 v 574.72 h -52.121 z m 515.038,65.95 -234.6,508.77 h -62.71 v -574.72 h 52.09 l -0.01,473.84 218.24,-473.84 h 53.13 l 218.18,473.84 0.06,-473.84 h 52.12 v 574.72 h -62.82 z m 767.4,0.06 -234.56,508.71 h -62.68 v -574.72 h 52.06 v 473.84 l 218.17,-473.84 h 53.13 l 218.24,473.84 0.07,-473.84 h 52.08 v 574.72 h -62.78 z m 457.98,-66.01 h 372.72 v 50.4 h -321.48 v 219.9 h 272.9 v 50.33 h -272.9 v 203.68 h 321.48 v 50.41 h -372.72 v -574.72"
         style="fill:#fff;fill-opacity:1;fill-rule:nonzero;stroke:none"
         id="path24" /><path
         d="m 5831.49,2209.86 v -214.81 l -309.38,-392.83 z m -313.44,-661.03 285.19,362.15 -176.95,-362.15 z m 652.93,52.96 -309.61,393.23 v 215.31 z m 3.8,-53.02 h -108.14 l -176.88,362.02 z m -328.2,767.98 -408.91,-803.07 h 210.47 l 198.31,405.79 198.27,-405.72 h 210.5 l -408.64,803"
         style="fill:#f57d14;fill-opacity:1;fill-rule:nonzero;stroke:none"
         id="path26" /><path
         d="m 6456.42,1620.66 v 214.77 l 309.29,392.74 z m 313.41,660.93 -285.16,-362.05 176.96,362.05 z m -652.93,-52.92 309.58,-393.21 0.07,-215.29 z m -3.8,53.01 h 108.12 l 176.87,-361.95 z m 526.57,35.05 -198.24,-405.78 -198.34,405.73 h -210.4 l 408.56,-802.99 408.93,803.04 h -210.51"
         style="fill:#00adef;fill-opacity:1;fill-rule:nonzero;stroke:none"
         id="path28" /></g></g></svg>
