<svg width="416" height="104" viewBox="0 0 416 104" fill="none" xmlns="http://www.w3.org/2000/svg">
<path d="M247.833 103.83C246.506 103.83 245.648 102.429 246.251 101.249L265.543 63.4699C266.089 62.4005 267.189 61.7276 268.39 61.7276H381.719C383.046 61.7276 383.904 63.1269 383.302 64.3068L364.039 102.086C363.494 103.156 362.393 103.829 361.191 103.829L247.833 103.83Z" fill="#00ADEF"/>
<path d="M287.541 79.4704C287.909 79.4704 288.073 79.3888 288.073 79.0609C288.073 78.9793 288.032 78.8565 288.032 78.7344C287.337 74.8527 284.269 72.3997 280.466 72.3997C276.172 72.3997 273.144 75.4645 272.614 79.4704H287.541ZM272.573 83.1478C272.818 87.2764 276.294 90.6685 280.588 90.6685C284.228 90.6685 286.724 88.911 287.991 86.7037C288.319 86.1316 288.85 85.886 289.423 85.886C290.446 85.886 291.549 86.6625 291.549 87.7251C291.549 89.0743 288.563 94.5098 280.548 94.5098C273.267 94.5098 268.4 88.8699 268.4 81.6771C268.4 73.8711 273.595 68.6394 280.426 68.6394C286.724 68.6394 291.632 73.2174 292.204 79.7146V80.1241C292.204 81.9227 291.222 83.1478 289.014 83.1478H272.573Z" fill="white"/>
<path d="M302.231 84.4961L296.014 93.3647C295.524 94.0595 294.869 94.3457 294.256 94.3457C293.111 94.3457 292.007 93.3647 292.007 92.2198C292.007 91.853 292.17 91.4441 292.456 91.0344L299.777 81.1446L293.111 72.0717C292.824 71.7047 292.701 71.2952 292.701 70.9275C292.701 69.8238 293.806 68.9657 294.951 68.9657C295.565 68.9657 296.178 69.2113 296.628 69.8238L302.231 77.7526L307.794 69.865C308.243 69.2113 308.897 68.9657 309.511 68.9657C310.656 68.9657 311.76 69.8238 311.76 70.9275C311.76 71.2952 311.597 71.6635 311.311 72.0717L304.685 81.1446L312.047 91.0344C312.333 91.4029 312.455 91.8117 312.455 92.2198C312.455 93.3647 311.352 94.3457 310.165 94.3457C309.552 94.3457 308.897 94.0595 308.447 93.3647L302.231 84.4961Z" fill="white"/>
<path d="M333.126 81.5543C333.126 76.4454 330.1 72.7269 325.806 72.7269C321.102 72.7269 318.117 76.3637 318.117 81.5543C318.117 86.7441 321.102 90.4227 325.806 90.4227C330.1 90.4227 333.126 86.6625 333.126 81.5543ZM314.149 70.4797C314.149 69.4165 315.172 68.9261 316.194 68.9261C317.177 68.9261 318.199 69.4165 318.199 70.4379V72.7269C319.712 70.0702 322.534 68.6394 326.173 68.6394C332.636 68.6394 337.298 73.7894 337.298 81.5543C337.298 89.3191 332.636 94.5097 326.173 94.5097C322.738 94.5097 319.957 93.1616 318.321 90.628V98.6789C318.321 99.8627 317.299 100.477 316.236 100.477C315.213 100.477 314.149 99.8627 314.149 98.6789V70.4797Z" fill="white"/>
<path d="M359.687 81.5944C359.687 76.4032 356.292 72.4398 351.548 72.4398C346.803 72.4398 343.409 76.4032 343.409 81.5944C343.409 86.7842 346.803 90.6674 351.548 90.6674C356.292 90.6674 359.687 86.7842 359.687 81.5944ZM339.237 81.5944C339.237 74.1156 344.145 68.5156 351.548 68.5156C358.95 68.5156 363.859 74.1156 363.859 81.5944C363.859 89.0732 358.95 94.6309 351.548 94.6309C344.145 94.6309 339.237 89.0732 339.237 81.5944Z" fill="white"/>
<path d="M159.723 28.2552V11.3433H172.327C177.784 11.3769 180.907 14.1296 180.936 19.5526C180.914 24.9798 177.76 28.2311 172.327 28.26L159.723 28.2552ZM184.507 19.5526C184.498 12.4655 179.4 7.84359 172.327 7.8333H156.148V47.2557H159.723V31.7679H170.957L182.126 47.2557H186.393L175.048 31.5141C180.668 30.3898 184.516 25.676 184.507 19.5526ZM208.277 25.2823L208.173 25.5457L208.277 25.2768C203.724 23.4933 199.195 22.0645 199.23 17.7733C199.234 14.5034 202.079 10.7444 207.952 10.7341C212.797 10.754 215.88 13.3428 215.888 17.2218V17.5051H219.457V17.2218C219.449 11.6787 215.121 7.28662 207.952 7.27701C200.031 7.28662 195.674 12.6706 195.658 17.7733C195.667 24.4955 201.55 26.4422 206.901 28.5295C212.967 30.8871 217.074 31.8934 217.054 36.7032C217.035 40.491 214.349 44.2177 207.226 44.2403C201.896 44.2266 196.901 40.7523 196.896 34.3154V34.0273H193.321V34.3154C193.337 42.2285 198.979 47.7997 207.226 47.8086C215.331 47.7997 220.613 43.1469 220.629 36.7032C220.633 29.3952 215.496 28.1234 208.277 25.2823V25.2823ZM229.776 47.2557H233.349V7.8333H229.776V47.2557ZM258.24 41.7778L245.43 7.8333H241.54L256.371 47.2557H260.047L274.879 7.8333H270.993L258.24 41.7778ZM308.646 11.2898V7.8333H283.066V47.2557H308.646V43.7986H286.577V28.7147H305.312V25.2624H286.577V11.2898H308.646ZM0 47.2557H3.57782V7.8333H0V47.2557ZM35.3545 42.7319L19.2505 7.8333H14.9458V47.2557H18.5215L18.5208 14.7531L33.5018 47.2557H37.1489L52.1257 14.7531L52.1299 47.2557H55.7076V7.8333H51.3954L35.3545 42.7319ZM88.0323 42.7278L71.9311 7.8333H67.6284V47.2557H71.2021V14.7531L86.1782 47.2557H89.8253L104.806 14.7531L104.811 47.2557H108.386V7.8333H104.077L88.0323 42.7278ZM119.47 47.2557H145.055V43.7986H122.987V28.7147H141.721V25.2624H122.987V11.2911H145.055V7.8333H119.47V47.2557" fill="white"/>
<path d="M345.179 7.33206V22.0668L323.942 49.0126L345.179 7.33206ZM323.663 52.6749L343.24 27.8335L331.093 52.6749H323.663ZM368.483 49.0421L347.23 22.0688V7.29983L368.483 49.0421ZM368.744 52.679H361.321L349.179 27.8465L368.744 52.679ZM346.215 4.19617e-05L318.146 55.0859H332.593L346.206 27.2511L359.816 55.0811H374.266L346.215 4.19617e-05Z" fill="#F57D14"/>
<path d="M388.077 47.7465V33.0145L409.308 6.07484L388.077 47.7465ZM409.591 2.41053L390.016 27.245L402.164 2.41053H409.591ZM364.771 6.04054L386.022 33.0124L386.027 47.7801L364.771 6.04054ZM364.51 2.40436H371.932L384.073 27.232L364.51 2.40436ZM400.656 0.000133514L387.048 27.8343L373.433 0.00356674H358.99L387.036 55.084L415.106 0.000133514H400.656Z" fill="#00ADEF"/>
</svg>
