<svg width="64" height="64" viewBox="0 0 64 64" fill="none" xmlns="http://www.w3.org/2000/svg">
<g clip-path="url(#clip0)">
<path d="M28.075 36.907L35.8089 44.6409C36.5015 45.3335 37.566 45.4899 38.4286 45.027L47.697 40.0514C48.3825 39.6831 49.2109 39.7009 49.8801 40.0984L63.403 48.1231C64.3679 48.6955 64.7562 49.893 64.3046 50.9198C63.1491 53.5495 61.0457 58.3693 60.2101 60.5004C60.0345 60.9491 59.7728 61.3601 59.4087 61.6752C50.3963 69.4873 32.4653 59.9685 18.7405 46.2437C5.01346 32.5181 -4.50527 14.5871 3.30683 5.57466C3.62256 5.21058 4.03357 4.9489 4.48156 4.77326C6.612 3.93772 11.4325 1.8343 14.0622 0.678767C15.089 0.227221 16.2865 0.615479 16.8589 1.58044L24.8836 15.1033C25.2804 15.7725 25.2982 16.6009 24.9305 17.2864L19.955 26.5534C19.4921 27.416 19.6485 28.4805 20.3411 29.1731L28.075 36.907Z" fill="black"/>
</g>
<defs>
<clipPath id="clip0">
<rect width="64" height="64" fill="white"/>
</clipPath>
</defs>
</svg>
