<svg xmlns="http://www.w3.org/2000/svg" width="1920" height="1080" viewBox="0 0 46 26" fill="none">
<path d="M13.6359 0.00479507L0.449219 26H7.23661L13.6306 12.8653L20.0254 25.9976H26.8119L13.6359 0.00479507ZM24.2184 24.8649H20.7316L15.027 13.1464L24.2184 24.8649ZM24.0961 23.1477L14.1117 10.4192V3.44982L24.0961 23.1477ZM3.0419 24.8631L12.2385 13.1388L6.53217 24.8631H3.0419ZM13.1485 3.46476V10.4181L3.17303 23.1345L13.1485 3.46476Z" fill="#F57B17"/>
<path d="M24.0961 23.1477L14.1117 10.4192V3.44982L24.0961 23.1477Z" fill="#F57B17"/>
<path d="M24.2184 24.8649H20.7316L15.027 13.1464L24.2184 24.8649Z" fill="#F57B17"/>
<path d="M3.0419 24.8631L12.2385 13.1388L6.53217 24.8631H3.0419Z" fill="#F57B17"/>
<path d="M13.1485 3.46476V10.4181L3.17303 23.1345L13.1485 3.46476Z" fill="#F57B17"/>





</svg>