<?xml version="1.0" encoding="utf-8"?>
<svg width="1920" height="1080" viewBox="0 0 46 26" fill="none" xmlns="http://www.w3.org/2000/svg">
  <path d="M13.6359 0.00479507L0.449219 26H7.23661L13.6306 12.8653L20.0254 25.9976H26.8119L13.6359 0.00479507ZM24.2184 24.8649H20.7316L15.027 13.1464L24.2184 24.8649ZM24.0961 23.1477L14.1117 10.4192V3.44982L24.0961 23.1477ZM3.0419 24.8631L12.2385 13.1388L6.53217 24.8631H3.0419ZM13.1485 3.46476V10.4181L3.17303 23.1345L13.1485 3.46476Z" fill="#F57B17"/>
  <path d="M 23.382 23.765 L 13.627 11.327 L 13.627 0.324 L 24.988 22.742 Z" fill="#F57B17" style=""/>
  <path d="M 20.772 25.865 L 11.772 7.044 L 26.274 25.865 Z" fill="#F57B17" style=""/>
  <path d="M 16.218 6.012 L 6.655 25.833 L 0.805 25.833 Z" fill="#F57B17" style=""/>
  <path d="M 13.423 11.423 L 3.857 23.752 L 2.281 22.736 L 13.423 0.523 Z" fill="#F57B17" style=""/>
</svg>