<?xml version="1.0" encoding="utf-8"?>
<svg width="1920" height="1080" viewBox="0 0 46 26" fill="none" xmlns="http://www.w3.org/2000/svg" xmlns:bx="https://boxy-svg.com">
  <path d="M39.2085 0.00479507L32.8172 13.1402L26.4214 0.00657272H19.6367L32.811 26L45.9968 0.00479507H39.2085ZM22.2285 1.14033H25.7152L31.4181 12.8566L22.2285 1.14033ZM22.3517 2.85572L32.3343 15.5842L32.3369 22.5532L22.3517 2.85572ZM43.4067 1.14273L34.211 12.8629L39.9174 1.14273H43.4067ZM33.2992 22.5369V15.5859L43.272 2.872L33.2992 22.5369Z" style="paint-order: fill;" fill="#469FDE"/>
  <path d="M 31.081 19.409 L 40.005 0.143 L 45.462 0.143 Z" fill="#469FDE" style=""/>
  <path d="M 13.799 8.85 L 27.929 -9.163 L 60.663 11.692 L 13.799 104.101 Z" style=""/>
  <path d="M 13.799 8.85 L 27.929 -9.163 L 60.663 11.692 L 13.799 104.101 Z" style=""/>
  <path d="M 32.624 13.36 L 42.81 0.375 L 44.489 1.444 L 32.624 24.84 Z" fill="#469FDE" style="stroke-width: 39px; stroke-miterlimit: 9; stroke-dashoffset: 14px;" bx:origin="0.571635 0.5"/>
  <path d="M 25.738 0.14 L 34.839 19.729 L 20.173 0.14 Z" fill="#469FDE" style=""/>
  <path d="M 23.02 2.239 L 32.491 14.035 L 32.495 24.472 L 21.46 3.209 Z" fill="#469FDE" style="stroke-dashoffset: 4px;"/>
</svg>