<svg xmlns="http://www.w3.org/2000/svg" width="1920" height="1080" viewBox="0 0 46 26" fill="none" transform="rotate(180)">





<path d="M39.2085 0.00479507L32.8172 13.1402L26.4214 0.00657272H19.6367L32.811 26L45.9968 0.00479507H39.2085ZM22.2285 1.14033H25.7152L31.4181 12.8566L22.2285 1.14033ZM22.3517 2.85572L32.3343 15.5842L32.3369 22.5532L22.3517 2.85572ZM43.4067 1.14273L34.211 12.8629L39.9174 1.14273H43.4067ZM33.2992 22.5369V15.5859L43.272 2.872L33.2992 22.5369Z" fill="#469FDE"/>
<path d="M43.4067 1.14273L34.211 12.8629L39.9174 1.14273H43.4067Z" fill="#469FDE"/>
<path d="M33.2992 22.5369V15.5859L43.272 2.872L33.2992 22.5369Z" fill="#469FDE"/>
<path d="M22.2285 1.14033H25.7152L31.4181 12.8566L22.2285 1.14033Z" fill="#469FDE"/>
<path d="M22.3517 2.85572L32.3343 15.5842L32.3369 22.5532L22.3517 2.85572Z" fill="#469FDE"/>
</svg>